<svg width="0" height="0" fill="none" style="visibility: hidden; position: absolute;" aria-hidden="true">
    <symbol id="ball" width="40" height="41" viewBox="0 0 40 41" fill="none" xmlns="http://www.w3.org/2000/svg">
        <path d="M19.9214 1.10156C30.4098 1.10156 38.976 9.81871 38.9761 20.5332C38.9761 31.2478 30.4098 39.9648 19.9214 39.9648C9.43312 39.9646 0.867676 31.2476 0.867676 20.5332C0.867753 9.81885 9.43317 1.10179 19.9214 1.10156ZM23.8911 25.5244C20.5104 26.5047 16.9738 29.0472 14.2935 31.499C12.9979 32.674 11.9514 33.7896 11.1118 34.7031L10.6968 35.1543L11.2222 35.4697C13.7677 36.9989 16.7236 37.8984 19.9126 37.8984C22.3059 37.8984 24.5638 37.3948 26.6255 36.5068L26.9741 36.3564L26.9224 35.9805C26.4381 32.4184 25.5841 29.0229 24.5034 25.8438L24.3501 25.3916L23.8911 25.5244ZM35.8188 24.9043C34.3588 24.74 32.5072 24.5746 30.1597 24.6621H30.1548C29.1437 24.7107 28.0666 24.8076 26.9722 24.9531L26.3765 25.0332L26.563 25.6045C27.4866 28.4385 28.2511 31.4406 28.7446 34.5635L28.8687 35.3506L29.5229 34.8965C32.709 32.6854 35.1198 29.3991 36.2427 25.541L36.4087 24.9707L35.8188 24.9043ZM20.0864 16.5352C12.373 18.7192 5.57758 18.6525 3.46143 18.5674L2.97998 18.5479L2.94287 19.0293C2.90553 19.5146 2.8667 20.0128 2.8667 20.543C2.86671 25.7602 5.13157 30.4173 8.70264 33.6035L9.07471 33.9355L9.40771 33.5645C10.3028 32.5665 11.5037 31.2955 12.9634 29.9688L12.9653 29.9668C15.7115 27.4438 19.2451 24.7733 23.0942 23.6084L23.6118 23.4521L23.4146 22.9482C22.553 20.7479 21.625 18.7024 20.6694 16.793L20.4849 16.4229L20.0864 16.5352ZM32.0483 9.19629C30.3924 11.2105 27.5167 13.8262 22.9644 15.6016L22.4565 15.7998L22.6978 16.2891C23.6792 18.2804 24.632 20.4027 25.4995 22.6943L25.6421 23.0723L26.0415 23.0117C29.3344 22.5106 32.3788 22.509 34.6782 22.6885V22.6895C35.3556 22.7455 35.742 22.81 36.2944 22.8877L36.8062 22.959L36.8618 22.4453C36.9292 21.8169 36.9673 21.1856 36.9673 20.5332C36.9673 16.1935 35.3902 12.2375 32.8169 9.19043L32.4292 8.73242L32.0483 9.19629ZM12.7524 4.79688C8.25654 6.91046 4.8493 10.9477 3.50439 15.8789L3.33838 16.4902L3.97119 16.5098C6.44694 16.5874 12.365 16.4715 18.9224 14.7207L19.5425 14.5547L19.231 13.9941C16.6875 9.42582 14.548 6.50238 13.3628 4.94629L13.1177 4.625L12.7524 4.79688ZM19.9214 3.16797C18.5027 3.16801 17.1271 3.36594 15.8247 3.69043L15.0952 3.87207L15.5444 4.47461C16.935 6.33912 18.9324 9.15525 21.3247 13.5654L21.5317 13.9463L21.938 13.7959C26.4647 12.1207 29.1775 9.55826 30.6626 7.69824L30.9702 7.31348L30.5903 7C27.6749 4.60091 23.9718 3.16797 19.9214 3.16797Z" fill="#070707" stroke="#070707"/>
    </symbol>
    <symbol id="be" width="41" height="41" viewBox="0 0 41 41" fill="none" xmlns="http://www.w3.org/2000/svg">
        <g clip-path="url(#clip0_169_15__be)">
            <path d="M34.3199 0.818359H5.96011C2.72025 0.818359 0.0844727 3.438 0.0844727 6.65803V34.8442C0.0844727 38.0642 2.72025 40.6839 5.96011 40.6839H34.3199C37.5597 40.6839 40.1955 38.0642 40.1955 34.8442V6.65803C40.1955 3.438 37.5597 0.818359 34.3199 0.818359ZM37.8453 34.8442C37.8453 36.7762 36.2637 38.348 34.3199 38.348H5.96011C4.01625 38.348 2.43473 36.7762 2.43473 34.8442V6.65803C2.43473 4.72608 4.01625 3.15423 5.96011 3.15423H34.3199C36.2637 3.15423 37.8453 4.72608 37.8453 6.65803V34.8442Z" fill="#070707" stroke="#070707" stroke-width="0.5"/>
            <path d="M18.9647 17.2469C18.9647 14.6708 16.8562 12.5752 14.2641 12.5752H7.21338V28.9263H14.2641C16.8562 28.9263 18.9647 26.8307 18.9647 24.2545C18.9647 22.8603 18.3462 21.6075 17.3681 20.7507C18.3462 19.894 18.9647 18.6412 18.9647 17.2469ZM16.6144 24.2545C16.6144 25.5426 15.5602 26.5904 14.2641 26.5904H9.56363V21.9187H14.2641C15.5602 21.9187 16.6144 22.9665 16.6144 24.2545ZM9.56363 19.5828V14.9111H14.2641C15.5602 14.9111 16.6144 15.9589 16.6144 17.2469C16.6144 18.535 15.5602 19.5828 14.2641 19.5828H9.56363Z" fill="#070707" stroke="#070707" stroke-width="0.5"/>
            <path d="M27.1906 17.2471C23.9507 17.2471 21.3149 19.8667 21.3149 23.0867C21.3149 26.3068 23.9507 28.9264 27.1906 28.9264C29.2816 28.9264 31.2316 27.8081 32.2794 26.0075L30.245 24.8377C29.6158 25.919 28.4453 26.5906 27.1906 26.5906C25.6583 26.5906 24.3516 25.6142 23.8666 24.2547H33.0662V23.0867C33.0662 19.8667 30.4304 17.2471 27.1906 17.2471ZM23.8666 21.9188C24.3516 20.5593 25.6583 19.5829 27.1906 19.5829C28.7228 19.5829 30.0296 20.5593 30.5146 21.9188H23.8666Z" fill="#070707" stroke="#070707" stroke-width="0.5"/>
            <path d="M22.4902 12.5752H31.8913V14.9111H22.4902V12.5752Z" fill="#070707" stroke="#070707" stroke-width="0.5"/>
        </g>
        <defs>
            <clipPath id="clip0_169_15__be">
                <rect width="40.111" height="39.8655" fill="white" transform="translate(0.0844727 0.818359)"/>
            </clipPath>
        </defs>
    </symbol>
    <symbol id="in" width="41" height="41" viewBox="0 0 41 41" fill="none" xmlns="http://www.w3.org/2000/svg">
        <path d="M34.5749 0.458008H6.17579C2.93143 0.458008 0.291992 3.08152 0.291992 6.30631V34.5341C0.291992 37.7589 2.93143 40.3824 6.17579 40.3824H34.5749C37.8193 40.3824 40.4587 37.7589 40.4587 34.5341V6.30631C40.4587 3.08152 37.8193 0.458008 34.5749 0.458008ZM38.1052 34.5341C38.1052 36.4689 36.5215 38.0431 34.5749 38.0431H6.17579C4.22923 38.0431 2.64551 36.4689 2.64551 34.5341V6.30631C2.64551 4.3715 4.22923 2.79733 6.17579 2.79733H34.5749C36.5215 2.79733 38.1052 4.3715 38.1052 6.30631V34.5341Z" fill="#070707" stroke="#070707" stroke-width="0.5"/>
        <path d="M26.625 15.7744C27.5179 15.8003 28.3645 16.0014 29.127 16.4795C30.1041 17.0924 30.6997 17.9893 31.0488 19.0664C31.3211 19.9059 31.4112 20.7723 31.4121 21.6504C31.4143 24.1805 31.4124 26.7111 31.4121 29.2412C31.4121 29.286 31.4083 29.3303 31.4053 29.3818H27.124V22.2197C27.124 21.7239 27.0871 21.2336 26.9619 20.749C26.7026 19.7467 26.0117 19.2736 25.2744 19.1709C24.5386 19.0685 23.756 19.3347 23.3096 19.8105C22.8628 20.2868 22.569 20.8266 22.5566 21.4941C22.5539 21.6506 22.5449 21.8103 22.5449 21.9678C22.544 24.3756 22.5439 26.7836 22.5439 29.1914V29.3809H18.2715V16.0908H22.542V17.873L22.5518 17.877C22.5624 17.8815 22.5745 17.8868 22.5859 17.8916L22.5967 17.8965L22.6045 17.8867C22.6349 17.8456 22.6669 17.8045 22.6973 17.7627C23.1277 17.1668 23.621 16.6394 24.2764 16.2832C25.0086 15.8849 25.8005 15.7506 26.625 15.7744Z" fill="#070707" stroke="#070707" stroke-width="0.0306072"/>
        <path d="M15.6113 16.0869V29.3887H11.3613V16.0869H15.6113Z" fill="#070707" stroke="#070707" stroke-width="0.0306072"/>
        <path d="M13.6689 9.45703C14.3391 9.45612 14.9111 9.69264 15.3154 10.0977C15.7196 10.5026 15.9576 11.0767 15.96 11.751C15.9621 12.4182 15.7226 12.9875 15.3125 13.3896C14.9025 13.7918 14.3209 14.028 13.6377 14.0283C12.3052 14.0292 11.356 13.0805 11.3535 11.7461C11.3511 10.411 12.3136 9.45895 13.6689 9.45703Z" fill="#070707" stroke="#070707" stroke-width="0.0306072"/>
    </symbol>
    <symbol id="insta" width="40" height="41" viewBox="0 0 40 41" fill="none" xmlns="http://www.w3.org/2000/svg">
        <path d="M28.5708 1.10156C34.5369 1.10156 39.4185 6.07057 39.4185 12.1748V28.8926C39.4182 34.9969 34.5369 39.9648 28.5806 39.9648H12.1665C6.19903 39.9648 1.31006 35.0044 1.31006 28.9111V12.1846C1.31006 6.08088 6.19983 1.11133 12.1665 1.11133H12.6665V1.10156H28.5708ZM12.1665 3.17676C7.25541 3.17676 3.32895 7.19437 3.31885 12.1924V28.9209C3.31885 33.8928 7.24753 37.9092 12.1665 37.9092H28.5806C33.4822 37.9092 37.4097 33.8909 37.4097 28.9014V12.1846C37.4097 7.19466 33.4815 3.17676 28.5708 3.17676H12.1665ZM20.3735 10.3086C25.8795 10.3086 30.4028 14.9039 30.4028 20.5381C30.4028 26.1723 25.8796 30.7676 20.3735 30.7676C14.8675 30.7675 10.3442 26.1723 10.3442 20.5381C10.3443 14.9039 14.8676 10.3086 20.3735 10.3086ZM20.3735 12.374C15.9145 12.3741 12.3531 16.0173 12.353 20.5381C12.353 25.0589 15.9145 28.7021 20.3735 28.7021C24.8326 28.7021 28.394 25.0589 28.394 20.5381C28.394 16.0173 24.8326 12.374 20.3735 12.374ZM32.4067 7.24219C32.9584 7.24219 33.4106 7.68994 33.4106 8.27539C33.4106 8.86083 32.9584 9.30859 32.4067 9.30859C31.8551 9.30851 31.4028 8.86077 31.4028 8.27539C31.4028 7.69 31.8551 7.24227 32.4067 7.24219Z" fill="#070707" stroke="#070707"/>
    </symbol>
</svg>