<svg width="40" height="41" viewBox="0 0 40 41" fill="none" xmlns="http://www.w3.org/2000/svg">
<path d="M19.9214 1.10156C30.4098 1.10156 38.976 9.81871 38.9761 20.5332C38.9761 31.2478 30.4098 39.9648 19.9214 39.9648C9.43312 39.9646 0.867676 31.2476 0.867676 20.5332C0.867753 9.81885 9.43317 1.10179 19.9214 1.10156ZM23.8911 25.5244C20.5104 26.5047 16.9738 29.0472 14.2935 31.499C12.9979 32.674 11.9514 33.7896 11.1118 34.7031L10.6968 35.1543L11.2222 35.4697C13.7677 36.9989 16.7236 37.8984 19.9126 37.8984C22.3059 37.8984 24.5638 37.3948 26.6255 36.5068L26.9741 36.3564L26.9224 35.9805C26.4381 32.4184 25.5841 29.0229 24.5034 25.8438L24.3501 25.3916L23.8911 25.5244ZM35.8188 24.9043C34.3588 24.74 32.5072 24.5746 30.1597 24.6621H30.1548C29.1437 24.7107 28.0666 24.8076 26.9722 24.9531L26.3765 25.0332L26.563 25.6045C27.4866 28.4385 28.2511 31.4406 28.7446 34.5635L28.8687 35.3506L29.5229 34.8965C32.709 32.6854 35.1198 29.3991 36.2427 25.541L36.4087 24.9707L35.8188 24.9043ZM20.0864 16.5352C12.373 18.7192 5.57758 18.6525 3.46143 18.5674L2.97998 18.5479L2.94287 19.0293C2.90553 19.5146 2.8667 20.0128 2.8667 20.543C2.86671 25.7602 5.13157 30.4173 8.70264 33.6035L9.07471 33.9355L9.40771 33.5645C10.3028 32.5665 11.5037 31.2955 12.9634 29.9688L12.9653 29.9668C15.7115 27.4438 19.2451 24.7733 23.0942 23.6084L23.6118 23.4521L23.4146 22.9482C22.553 20.7479 21.625 18.7024 20.6694 16.793L20.4849 16.4229L20.0864 16.5352ZM32.0483 9.19629C30.3924 11.2105 27.5167 13.8262 22.9644 15.6016L22.4565 15.7998L22.6978 16.2891C23.6792 18.2804 24.632 20.4027 25.4995 22.6943L25.6421 23.0723L26.0415 23.0117C29.3344 22.5106 32.3788 22.509 34.6782 22.6885V22.6895C35.3556 22.7455 35.742 22.81 36.2944 22.8877L36.8062 22.959L36.8618 22.4453C36.9292 21.8169 36.9673 21.1856 36.9673 20.5332C36.9673 16.1935 35.3902 12.2375 32.8169 9.19043L32.4292 8.73242L32.0483 9.19629ZM12.7524 4.79688C8.25654 6.91046 4.8493 10.9477 3.50439 15.8789L3.33838 16.4902L3.97119 16.5098C6.44694 16.5874 12.365 16.4715 18.9224 14.7207L19.5425 14.5547L19.231 13.9941C16.6875 9.42582 14.548 6.50238 13.3628 4.94629L13.1177 4.625L12.7524 4.79688ZM19.9214 3.16797C18.5027 3.16801 17.1271 3.36594 15.8247 3.69043L15.0952 3.87207L15.5444 4.47461C16.935 6.33912 18.9324 9.15525 21.3247 13.5654L21.5317 13.9463L21.938 13.7959C26.4647 12.1207 29.1775 9.55826 30.6626 7.69824L30.9702 7.31348L30.5903 7C27.6749 4.60091 23.9718 3.16797 19.9214 3.16797Z" fill="#070707" stroke="#070707"/>
</svg>
