<svg width="41" height="41" viewBox="0 0 41 41" fill="none" xmlns="http://www.w3.org/2000/svg">
<g clip-path="url(#clip0_169_15)">
<path d="M34.3199 0.818359H5.96011C2.72025 0.818359 0.0844727 3.438 0.0844727 6.65803V34.8442C0.0844727 38.0642 2.72025 40.6839 5.96011 40.6839H34.3199C37.5597 40.6839 40.1955 38.0642 40.1955 34.8442V6.65803C40.1955 3.438 37.5597 0.818359 34.3199 0.818359ZM37.8453 34.8442C37.8453 36.7762 36.2637 38.348 34.3199 38.348H5.96011C4.01625 38.348 2.43473 36.7762 2.43473 34.8442V6.65803C2.43473 4.72608 4.01625 3.15423 5.96011 3.15423H34.3199C36.2637 3.15423 37.8453 4.72608 37.8453 6.65803V34.8442Z" fill="#070707" stroke="#070707" stroke-width="0.5"/>
<path d="M18.9647 17.2469C18.9647 14.6708 16.8562 12.5752 14.2641 12.5752H7.21338V28.9263H14.2641C16.8562 28.9263 18.9647 26.8307 18.9647 24.2545C18.9647 22.8603 18.3462 21.6075 17.3681 20.7507C18.3462 19.894 18.9647 18.6412 18.9647 17.2469ZM16.6144 24.2545C16.6144 25.5426 15.5602 26.5904 14.2641 26.5904H9.56363V21.9187H14.2641C15.5602 21.9187 16.6144 22.9665 16.6144 24.2545ZM9.56363 19.5828V14.9111H14.2641C15.5602 14.9111 16.6144 15.9589 16.6144 17.2469C16.6144 18.535 15.5602 19.5828 14.2641 19.5828H9.56363Z" fill="#070707" stroke="#070707" stroke-width="0.5"/>
<path d="M27.1906 17.2471C23.9507 17.2471 21.3149 19.8667 21.3149 23.0867C21.3149 26.3068 23.9507 28.9264 27.1906 28.9264C29.2816 28.9264 31.2316 27.8081 32.2794 26.0075L30.245 24.8377C29.6158 25.919 28.4453 26.5906 27.1906 26.5906C25.6583 26.5906 24.3516 25.6142 23.8666 24.2547H33.0662V23.0867C33.0662 19.8667 30.4304 17.2471 27.1906 17.2471ZM23.8666 21.9188C24.3516 20.5593 25.6583 19.5829 27.1906 19.5829C28.7228 19.5829 30.0296 20.5593 30.5146 21.9188H23.8666Z" fill="#070707" stroke="#070707" stroke-width="0.5"/>
<path d="M22.4902 12.5752H31.8913V14.9111H22.4902V12.5752Z" fill="#070707" stroke="#070707" stroke-width="0.5"/>
</g>
<defs>
<clipPath id="clip0_169_15">
<rect width="40.111" height="39.8655" fill="white" transform="translate(0.0844727 0.818359)"/>
</clipPath>
</defs>
</svg>
