<svg width="41" height="41" viewBox="0 0 41 41" fill="none" xmlns="http://www.w3.org/2000/svg">
<path d="M34.5749 0.458008H6.17579C2.93143 0.458008 0.291992 3.08152 0.291992 6.30631V34.5341C0.291992 37.7589 2.93143 40.3824 6.17579 40.3824H34.5749C37.8193 40.3824 40.4587 37.7589 40.4587 34.5341V6.30631C40.4587 3.08152 37.8193 0.458008 34.5749 0.458008ZM38.1052 34.5341C38.1052 36.4689 36.5215 38.0431 34.5749 38.0431H6.17579C4.22923 38.0431 2.64551 36.4689 2.64551 34.5341V6.30631C2.64551 4.3715 4.22923 2.79733 6.17579 2.79733H34.5749C36.5215 2.79733 38.1052 4.3715 38.1052 6.30631V34.5341Z" fill="#070707" stroke="#070707" stroke-width="0.5"/>
<path d="M26.625 15.7744C27.5179 15.8003 28.3645 16.0014 29.127 16.4795C30.1041 17.0924 30.6997 17.9893 31.0488 19.0664C31.3211 19.9059 31.4112 20.7723 31.4121 21.6504C31.4143 24.1805 31.4124 26.7111 31.4121 29.2412C31.4121 29.286 31.4083 29.3303 31.4053 29.3818H27.124V22.2197C27.124 21.7239 27.0871 21.2336 26.9619 20.749C26.7026 19.7467 26.0117 19.2736 25.2744 19.1709C24.5386 19.0685 23.756 19.3347 23.3096 19.8105C22.8628 20.2868 22.569 20.8266 22.5566 21.4941C22.5539 21.6506 22.5449 21.8103 22.5449 21.9678C22.544 24.3756 22.5439 26.7836 22.5439 29.1914V29.3809H18.2715V16.0908H22.542V17.873L22.5518 17.877C22.5624 17.8815 22.5745 17.8868 22.5859 17.8916L22.5967 17.8965L22.6045 17.8867C22.6349 17.8456 22.6669 17.8045 22.6973 17.7627C23.1277 17.1668 23.621 16.6394 24.2764 16.2832C25.0086 15.8849 25.8005 15.7506 26.625 15.7744Z" fill="#070707" stroke="#070707" stroke-width="0.0306072"/>
<path d="M15.6113 16.0869V29.3887H11.3613V16.0869H15.6113Z" fill="#070707" stroke="#070707" stroke-width="0.0306072"/>
<path d="M13.6689 9.45703C14.3391 9.45612 14.9111 9.69264 15.3154 10.0977C15.7196 10.5026 15.9576 11.0767 15.96 11.751C15.9621 12.4182 15.7226 12.9875 15.3125 13.3896C14.9025 13.7918 14.3209 14.028 13.6377 14.0283C12.3052 14.0292 11.356 13.0805 11.3535 11.7461C11.3511 10.411 12.3136 9.45895 13.6689 9.45703Z" fill="#070707" stroke="#070707" stroke-width="0.0306072"/>
</svg>
