<svg width="40" height="41" viewBox="0 0 40 41" fill="none" xmlns="http://www.w3.org/2000/svg">
<path d="M28.5708 1.10156C34.5369 1.10156 39.4185 6.07057 39.4185 12.1748V28.8926C39.4182 34.9969 34.5369 39.9648 28.5806 39.9648H12.1665C6.19903 39.9648 1.31006 35.0044 1.31006 28.9111V12.1846C1.31006 6.08088 6.19983 1.11133 12.1665 1.11133H12.6665V1.10156H28.5708ZM12.1665 3.17676C7.25541 3.17676 3.32895 7.19437 3.31885 12.1924V28.9209C3.31885 33.8928 7.24753 37.9092 12.1665 37.9092H28.5806C33.4822 37.9092 37.4097 33.8909 37.4097 28.9014V12.1846C37.4097 7.19466 33.4815 3.17676 28.5708 3.17676H12.1665ZM20.3735 10.3086C25.8795 10.3086 30.4028 14.9039 30.4028 20.5381C30.4028 26.1723 25.8796 30.7676 20.3735 30.7676C14.8675 30.7675 10.3442 26.1723 10.3442 20.5381C10.3443 14.9039 14.8676 10.3086 20.3735 10.3086ZM20.3735 12.374C15.9145 12.3741 12.3531 16.0173 12.353 20.5381C12.353 25.0589 15.9145 28.7021 20.3735 28.7021C24.8326 28.7021 28.394 25.0589 28.394 20.5381C28.394 16.0173 24.8326 12.374 20.3735 12.374ZM32.4067 7.24219C32.9584 7.24219 33.4106 7.68994 33.4106 8.27539C33.4106 8.86083 32.9584 9.30859 32.4067 9.30859C31.8551 9.30851 31.4028 8.86077 31.4028 8.27539C31.4028 7.69 31.8551 7.24227 32.4067 7.24219Z" fill="#070707" stroke="#070707"/>
</svg>
